<svg width="60" height="60" viewBox="0 0 60 60" fill="none" xmlns="http://www.w3.org/2000/svg">
<g clip-path="url(#clip0)">
<path d="M24.8976 27.0197H28.8977V29.0201H24.8976V27.0197Z" fill="black"/>
<path d="M59.0418 24.0295L52.2485 23.0594C51.0098 22.2985 49.7243 21.6173 48.3989 21.0195C44.022 19.0369 39.2715 18.0139 34.4661 18.0192H33.286C27.615 18.0233 22.0348 19.4463 17.054 22.1585L13.6256 24.0287C9.61248 24.0739 5.67666 25.1413 2.19009 27.1287C0.773167 27.9413 -0.10173 29.449 -0.104172 31.082V37.0203C-0.104172 37.573 0.34345 38.0206 0.89606 38.0206H4.25404C5.34624 41.1364 8.75752 42.7772 11.8734 41.685C13.5886 41.0839 14.9367 39.7354 15.5378 38.0206H42.2567C43.3489 41.1364 46.7602 42.7772 49.8761 41.685C51.5909 41.0839 52.9394 39.7354 53.5405 38.0206H53.8994C54.0268 38.0206 54.1529 37.9966 54.2713 37.9494L57.5105 36.6496C58.9575 36.0767 59.9053 34.676 59.9 33.1203V25.0196C59.9 24.5223 59.5341 24.1003 59.0418 24.0295ZM13.8157 36.8205C13.3733 38.985 11.2601 40.3812 9.09568 39.9388C6.93082 39.4965 5.53465 37.3833 5.97698 35.2185C6.41972 33.054 8.5329 31.6578 10.6974 32.1002C12.5599 32.4806 13.897 34.1193 13.8966 36.0205C13.8966 36.2891 13.8694 36.5573 13.8157 36.8205ZM31.898 36.0205H15.8967C15.8967 32.7065 13.2105 30.0199 9.89652 30.0199C6.58249 30.0199 3.89594 32.7065 3.89594 36.0205H1.89589V31.082C1.89711 30.166 2.38786 29.32 3.183 28.8651C6.44657 27.0017 10.139 26.021 13.8966 26.0198H31.898V36.0205ZM31.898 24.0198H17.819L18.0119 23.9144C22.2875 21.5908 27.0368 20.2736 31.898 20.0632V24.0198ZM33.898 20.0192H34.4641C38.4943 20.0148 42.4879 20.7798 46.2312 22.2736L44.4851 24.0198H33.898V20.0192ZM51.8184 36.8205C51.376 38.985 49.2628 40.3812 47.098 39.9388C44.9335 39.4965 43.5374 37.3833 43.9797 35.2185C44.422 33.054 46.5356 31.6578 48.7001 32.1002C50.5626 32.4806 51.8997 34.1193 51.8993 36.0205C51.8993 36.2891 51.8721 36.5573 51.8184 36.8205ZM57.8999 27.0197H54.8996V29.0201H57.8999V33.1203C57.9024 33.8573 57.4531 34.5206 56.7678 34.7912L53.8994 35.9432C53.8994 35.8512 53.8876 35.7601 53.8815 35.6681C53.8754 35.5762 53.8734 35.4683 53.8636 35.3682C53.8534 35.2681 53.8335 35.168 53.8176 35.0683C53.8013 34.9682 53.7895 34.8681 53.7696 34.7773C53.7496 34.6862 53.7203 34.5853 53.6943 34.4901C53.6683 34.3952 53.6483 34.2992 53.6182 34.206C53.5885 34.1132 53.5523 34.0241 53.5185 33.933C53.4843 33.8422 53.4534 33.7482 53.4184 33.6579C53.3834 33.568 53.3362 33.4862 53.2943 33.4011C53.2524 33.3161 53.2113 33.2229 53.1645 33.137C53.1173 33.0512 53.0644 32.9779 53.0192 32.8981C52.9744 32.818 52.9195 32.7268 52.8625 32.645C52.8052 32.5628 52.7523 32.4981 52.6973 32.4241C52.6424 32.35 52.5801 32.2629 52.5162 32.186C52.4524 32.1091 52.3925 32.0489 52.3303 31.9858C52.2684 31.9231 52.1992 31.8381 52.1305 31.7681C52.0613 31.6981 51.9933 31.6428 51.9246 31.5809C51.8554 31.5191 51.7813 31.4458 51.7052 31.3807C51.6295 31.316 51.5522 31.266 51.4765 31.209C51.4004 31.152 51.3243 31.091 51.2446 31.0377C51.1644 30.9848 51.0745 30.938 50.9886 30.8818C50.9024 30.8257 50.8324 30.7817 50.7514 30.739C50.6704 30.6958 50.5695 30.6507 50.4775 30.6067C50.3856 30.5628 50.3135 30.5237 50.2285 30.4879C50.1434 30.4517 50.0283 30.4138 49.9286 30.378C49.8285 30.3418 49.7634 30.3137 49.6783 30.2869C49.5644 30.2519 49.4476 30.2267 49.3312 30.1978C49.2551 30.1799 49.1823 30.1559 49.1054 30.14C48.9825 30.1148 48.8563 30.1009 48.7314 30.0826C48.6573 30.0728 48.5865 30.0566 48.5125 30.0496C48.3123 30.0297 48.1125 30.0187 47.9025 30.0187C44.5897 30.022 41.9052 32.7065 41.9019 36.0193H33.8984V26.0194H44.8989C45.1643 26.0194 45.4186 25.914 45.6058 25.7264L48.1991 23.1331C49.2877 23.6511 50.3461 24.2302 51.3695 24.8674C51.4875 24.9411 51.6194 24.9895 51.7573 25.0094L57.8999 25.8864V27.0197Z" fill="black"/>
</g>
<defs>
<clipPath id="clip0">
<rect width="60" height="60" fill="white"/>
</clipPath>
</defs>
</svg>
