<svg width="60" height="60" viewBox="0 0 60 60" fill="none" xmlns="http://www.w3.org/2000/svg">
<g clip-path="url(#clip0)">
<path d="M34.8045 17.8075C34.1564 17.8075 33.6308 18.3325 33.6308 18.9793C33.6308 19.6257 34.1564 20.1508 34.8045 20.1508C35.4525 20.1508 35.9782 19.6257 35.9782 18.9793C35.9782 18.3325 35.4525 17.8075 34.8045 17.8075V17.8075Z" fill="black"/>
<path d="M27.6861 40.6952C28.1443 40.237 28.1443 39.4954 27.6861 39.0372C27.2274 38.5803 26.4844 38.5803 26.0253 39.0372C25.5675 39.4954 25.5675 40.237 26.0253 40.6952C26.4844 41.1521 27.2274 41.1521 27.6861 40.6952Z" fill="black"/>
<path d="M13.5795 59.6535C14.0345 60.1113 14.7753 60.1163 15.2362 59.6631L20.9273 54.0674C21.8941 53.1024 22.1881 51.6738 21.7629 50.4318L22.9871 49.2536C23.6462 48.6182 24.514 48.268 25.4313 48.268H41.0363C43.8047 48.268 46.4214 47.2069 48.4051 45.2802C48.4867 45.201 47.7854 46.0254 59.051 32.5873C60.7219 30.6143 60.472 27.6517 58.4933 25.9822C56.527 24.3283 53.5815 24.5659 51.906 26.505L44.9794 33.6104C44.1047 32.536 42.7709 31.8663 41.3298 31.8663H28.2401C26.3775 31.0886 24.4011 30.6949 22.3619 30.6949C16.7113 30.6949 11.7747 33.2987 9.12503 38.1857C8.00911 37.9747 6.83219 38.3116 5.98551 39.1567L0.401327 44.7464C-0.0545802 45.2028 -0.0554975 45.9412 0.399493 46.3985L13.5795 59.6535ZM22.3615 33.0377C24.1594 33.0377 25.8978 33.3989 27.5292 34.1112C27.6778 34.1762 27.8379 34.2096 27.9998 34.2096H41.3298C42.6026 34.2096 43.6777 35.2455 43.6777 36.5524C43.6777 37.8447 42.6246 38.8957 41.3298 38.8957H31.7525C31.1045 38.8957 30.5788 39.4203 30.5788 40.0672C30.5788 40.7144 31.1045 41.2386 31.7525 41.2386H41.3298C43.9189 41.2386 46.0251 39.1365 46.0251 36.5524C46.0251 36.3465 46.0104 36.1423 45.9838 35.94C52.6844 29.0657 53.6292 28.0998 53.6696 28.0518C54.5062 27.0662 55.9913 26.9412 56.9793 27.7725C57.9681 28.607 58.0934 30.0884 57.2545 31.0794L46.7259 43.6414C45.1885 45.1145 43.17 45.9252 41.0363 45.9252H25.4313C23.9021 45.9252 22.4546 46.5088 21.3566 47.5676L20.359 48.5285L11.1629 39.3508C13.3121 35.3266 17.3451 33.0377 22.3615 33.0377V33.0377ZM7.64677 40.8124C8.03388 40.426 8.6283 40.3565 9.10027 40.6476C9.2796 40.7565 19.3197 50.8017 19.3816 50.8846C19.7251 51.3465 19.676 52.0024 19.2738 52.4043L14.4221 57.1747L2.88818 45.5754L7.64677 40.8124Z" fill="black"/>
<path d="M18.3707 24.8369H46.5429C48.4849 24.8369 50.0645 23.2604 50.0645 21.3222C50.0645 18.3691 50.0645 5.63828 50.0645 3.51471C50.0645 1.57654 48.4849 0 46.5429 0H18.3707C16.4287 0 14.8491 1.57654 14.8491 3.51471V21.3222C14.8491 23.2604 16.4287 24.8369 18.3707 24.8369ZM47.7166 9.37226H17.197V7.02942H47.7166V9.37226ZM46.5429 22.4941H18.3707C17.7235 22.4941 17.197 21.9681 17.197 21.3222V11.7156H47.7166V21.3222C47.7166 21.9681 47.1901 22.4941 46.5429 22.4941ZM18.3707 2.34329H46.5429C47.1901 2.34329 47.7166 2.86881 47.7166 3.51471V4.68613H17.197V3.51471C17.197 2.86881 17.7235 2.34329 18.3707 2.34329Z" fill="black"/>
<path d="M44.1951 17.8075H39.4998C38.8517 17.8075 38.326 18.3321 38.326 18.9793C38.326 19.6262 38.8517 20.1508 39.4998 20.1508H44.1951C44.8436 20.1508 45.3692 19.6262 45.3692 18.9793C45.3692 18.3321 44.8436 17.8075 44.1951 17.8075V17.8075Z" fill="black"/>
</g>
<defs>
<clipPath id="clip0">
<rect width="60" height="60" fill="white"/>
</clipPath>
</defs>
</svg>
