<svg width="60" height="60" viewBox="0 0 60 60" fill="none" xmlns="http://www.w3.org/2000/svg">
<path d="M35.168 18.3367C35.1703 17.3922 34.8924 16.4682 34.3694 15.6817C33.8463 14.8952 33.1017 14.2816 32.2298 13.9185C31.3578 13.5554 30.3978 13.4592 29.4711 13.6421C28.5444 13.8249 27.6929 14.2786 27.0242 14.9457C26.3555 15.6127 25.8998 16.4632 25.7147 17.3894C25.5296 18.3156 25.6234 19.2759 25.9844 20.1487C26.3453 21.0216 26.9571 21.7677 27.7424 22.2926C28.5276 22.8176 29.4509 23.0977 30.3954 23.0977C31.6592 23.0978 32.8714 22.5966 33.7661 21.704C34.6608 20.8115 35.165 19.6005 35.168 18.3367V18.3367ZM30.3954 21.6914C29.7324 21.6891 29.085 21.4904 28.5349 21.1204C27.9848 20.7504 27.5566 20.2256 27.3045 19.6125C27.0524 18.9993 26.9876 18.3252 27.1184 17.6752C27.2491 17.0253 27.5695 16.4286 28.0391 15.9607C28.5087 15.4927 29.1065 15.1743 29.7569 15.0458C30.4073 14.9173 31.0812 14.9844 31.6935 15.2386C32.3058 15.4929 32.829 15.9228 33.1971 16.4742C33.5652 17.0256 33.7617 17.6737 33.7617 18.3367C33.7591 19.2276 33.4033 20.0812 32.7722 20.7101C32.1411 21.339 31.2863 21.6919 30.3954 21.6914Z" fill="black"/>
<path d="M14.8785 30.1289C14.227 30.1304 13.5906 30.325 13.0497 30.6881C12.5087 31.0511 12.0875 31.5664 11.8393 32.1687C11.5911 32.771 11.5269 33.4334 11.6549 34.0722C11.783 34.7109 12.0975 35.2974 12.5587 35.7575C13.0199 36.2176 13.6071 36.5307 14.2462 36.6572C14.8853 36.7838 15.5475 36.718 16.1492 36.4684C16.751 36.2187 17.2652 35.7963 17.627 35.2545C17.9887 34.7127 18.1818 34.0758 18.1818 33.4243C18.1797 32.5496 17.8308 31.7114 17.2116 31.0936C16.5923 30.4758 15.7532 30.1288 14.8785 30.1289V30.1289ZM14.8785 35.3136C14.5051 35.3121 14.1406 35.2 13.831 34.9915C13.5213 34.783 13.2803 34.4874 13.1385 34.142C12.9967 33.7966 12.9604 33.417 13.0342 33.051C13.1079 32.6851 13.2885 32.3491 13.553 32.0857C13.8175 31.8222 14.1542 31.6431 14.5205 31.5708C14.8867 31.4985 15.2662 31.5364 15.611 31.6796C15.9558 31.8228 16.2504 32.065 16.4576 32.3755C16.6649 32.686 16.7755 33.051 16.7755 33.4243C16.774 33.9263 16.5734 34.4072 16.2178 34.7615C15.8622 35.1158 15.3805 35.3145 14.8785 35.3141V35.3136Z" fill="black"/>
<path d="M35.747 36.2557C35.1887 36.257 34.6433 36.4237 34.1797 36.7347C33.7161 37.0458 33.3551 37.4874 33.1423 38.0035C32.9295 38.5197 32.8745 39.0873 32.9841 39.6348C33.0938 40.1822 33.3633 40.6848 33.7585 41.0792C34.1538 41.4735 34.657 41.7419 35.2047 41.8503C35.7523 41.9588 36.3199 41.9025 36.8356 41.6886C37.3513 41.4746 37.792 41.1126 38.102 40.6483C38.4121 40.184 38.5775 39.6382 38.5775 39.0799C38.5759 38.3303 38.2769 37.612 37.7463 37.0825C37.2156 36.5531 36.4966 36.2557 35.747 36.2557ZM35.747 40.4979C35.4668 40.4966 35.1933 40.4124 34.9609 40.2559C34.7286 40.0993 34.5478 39.8774 34.4415 39.6182C34.3351 39.359 34.308 39.0741 34.3634 38.7994C34.4188 38.5248 34.5543 38.2727 34.7529 38.0751C34.9515 37.8774 35.2041 37.743 35.479 37.6888C35.7539 37.6346 36.0387 37.663 36.2974 37.7705C36.5561 37.878 36.7772 38.0598 36.9328 38.2928C37.0883 38.5259 37.1713 38.7997 37.1713 39.0799C37.17 39.4567 37.0193 39.8175 36.7523 40.0833C36.4853 40.3491 36.1238 40.4982 35.747 40.4978V40.4979Z" fill="black"/>
<path d="M50.7831 26.6385C51.3414 26.6372 51.8868 26.4705 52.3504 26.1594C52.814 25.8483 53.175 25.4068 53.3878 24.8907C53.6006 24.3745 53.6556 23.8068 53.5459 23.2594C53.4363 22.712 53.1668 22.2093 52.7716 21.815C52.3763 21.4207 51.8731 21.1523 51.3254 21.0439C50.7777 20.9354 50.2102 20.9917 49.6945 21.2056C49.1788 21.4196 48.7381 21.7816 48.4281 22.2459C48.118 22.7102 47.9525 23.2559 47.9525 23.8143C47.9542 24.5639 48.2532 25.2822 48.7838 25.8117C49.3145 26.3411 50.0335 26.6385 50.7831 26.6385V26.6385ZM50.7831 22.3963C51.0633 22.3975 51.3368 22.4818 51.5691 22.6383C51.8015 22.7949 51.9823 23.0168 52.0886 23.276C52.195 23.5352 52.2221 23.8201 52.1667 24.0947C52.1113 24.3694 51.9757 24.6215 51.7772 24.8191C51.5786 25.0168 51.326 25.1512 51.0511 25.2054C50.7762 25.2596 50.4914 25.2312 50.2327 25.1237C49.9739 25.0162 49.7529 24.8344 49.5973 24.6014C49.4418 24.3683 49.3588 24.0944 49.3588 23.8143C49.3601 23.4375 49.5107 23.0766 49.7777 22.8108C50.0448 22.5449 50.4063 22.3959 50.7831 22.3963V22.3963Z" fill="black"/>
<path d="M52.8329 29.361L54.6874 26.8893C55.4017 25.9566 55.757 24.7983 55.6884 23.6256C55.5214 21.0667 53.4255 19.062 50.9168 19.062C48.408 19.062 46.3125 21.0667 46.1452 23.625C46.1089 24.2059 46.1812 24.7884 46.3583 25.3429L34.761 25.5555L36.5508 23.1688C37.6931 21.679 38.2618 19.8281 38.153 17.9539C38.0298 16.0368 37.2149 14.2295 35.8595 12.868C35.1612 12.1692 34.332 11.6148 33.4194 11.2365C32.5067 10.8583 31.5285 10.6636 30.5405 10.6636C29.5526 10.6636 28.5744 10.8583 27.6617 11.2365C26.749 11.6148 25.9199 12.1692 25.2216 12.868C23.8664 14.2292 23.0515 16.036 22.9282 17.9528C22.8087 19.74 23.3756 21.5896 24.5297 23.1676L26.078 25.2312L9.59766 25.3398C9.4518 25.3408 9.30984 25.3871 9.19146 25.4723C9.07308 25.5575 8.98414 25.6774 8.93696 25.8155L1.20973 48.4054C1.17354 48.5112 1.16313 48.6242 1.17936 48.7348C1.19559 48.8455 1.238 48.9507 1.30306 49.0417C1.36811 49.1327 1.45394 49.2069 1.55342 49.2581C1.65289 49.3092 1.76314 49.3359 1.875 49.3359H58.125C58.2353 49.3359 58.3441 49.31 58.4425 49.2602C58.5409 49.2104 58.6262 49.1381 58.6915 49.0492C58.7568 48.9603 58.8003 48.8573 58.8185 48.7485C58.8366 48.6397 58.8289 48.5282 58.796 48.4229L52.8329 29.361ZM47.5478 23.7172C47.652 22.1202 48.9403 20.4682 50.9162 20.4682C52.8921 20.4682 54.1804 22.1205 54.2847 23.7191C54.3307 24.5558 54.0744 25.3812 53.5625 26.0446L50.9162 29.5719L48.2749 26.0516C47.7669 25.3826 47.5097 24.5564 47.5484 23.7172H47.5478ZM47.0391 26.7363C47.0742 26.7874 47.1094 26.8383 47.1457 26.8887L50.3544 31.166C50.4199 31.2533 50.5048 31.3242 50.6025 31.373C50.7001 31.4218 50.8078 31.4473 50.9169 31.4473C51.0261 31.4473 51.1337 31.4218 51.2314 31.373C51.329 31.3242 51.4139 31.2533 51.4794 31.166L51.7934 30.7477L52.5927 33.3032L41.6907 33.3056L40.9008 26.8496L47.0391 26.7363ZM25.6602 22.3311C24.7061 21.0265 24.2343 19.5049 24.3319 18.0459C24.4328 16.4687 25.103 14.9817 26.2178 13.8614C26.7855 13.2936 27.4594 12.8431 28.2012 12.5358C28.943 12.2285 29.7381 12.0703 30.541 12.0703C31.3439 12.0703 32.139 12.2285 32.8808 12.5358C33.6226 12.8431 34.2965 13.2936 34.8642 13.8614C35.9796 14.9822 36.6501 16.4699 36.7509 18.0479C36.8369 19.586 36.367 21.1038 35.427 22.3242L30.5411 28.8364L25.6602 22.3311ZM2.85867 47.9297L6.51141 37.251L10.6702 37.2383L14.4795 42.3156C14.5449 42.4029 14.6299 42.4738 14.7275 42.5226C14.8251 42.5714 14.9328 42.5968 15.042 42.5968C15.1511 42.5968 15.2588 42.5714 15.3564 42.5226C15.454 42.4738 15.539 42.4029 15.6045 42.3156L18.6396 38.2696L18.677 47.9297H2.85867ZM18.4013 36.2445L15.0418 40.722L11.6876 36.2514C11.0282 35.349 10.7018 34.3003 10.7691 33.296C10.901 31.2722 12.5354 29.1789 15.0418 29.1789C17.5482 29.1789 19.1827 31.2722 19.3148 33.298C19.3736 34.3579 19.0493 35.4037 18.4013 36.2445V36.2445ZM29.4831 40.5586C29.4167 40.624 29.364 40.702 29.328 40.788C29.292 40.874 29.2735 40.9663 29.2736 41.0596L29.2773 47.9297H20.0832L20.0391 36.2825C20.5491 35.3403 20.7846 34.2739 20.7188 33.2045C20.5201 30.1587 18.0268 27.7726 15.0427 27.7726C12.0585 27.7726 9.56532 30.1587 9.36668 33.2033C9.31325 34.1056 9.47559 35.0075 9.84024 35.8345L6.99375 35.8432L10.1066 26.7428L27.1291 26.6311L29.9794 30.4301C30.0449 30.5174 30.1298 30.5883 30.2274 30.6371C30.3251 30.6859 30.4327 30.7113 30.5419 30.7113C30.651 30.7113 30.7587 30.6859 30.8563 30.6371C30.954 30.5883 31.0389 30.5174 31.1044 30.4301L33.6914 26.9811L39.4874 26.8748L40.3705 34.0936C40.3914 34.264 40.4739 34.4209 40.6024 34.5347C40.731 34.6485 40.8968 34.7113 41.0685 34.7113L53.0326 34.7086L54.7969 40.3485L40.5135 40.3727C40.6384 39.8895 40.6854 39.3893 40.6525 38.8913C40.4856 36.3321 38.3896 34.3275 35.8808 34.3275C33.3721 34.3275 31.2761 36.3321 31.1092 38.8901C31.0774 39.3897 31.1266 39.8913 31.255 40.3752L29.9872 40.3563C29.8938 40.3538 29.8009 40.3705 29.7142 40.4052C29.6275 40.44 29.5488 40.4922 29.4831 40.5586V40.5586ZM38.527 41.3101L35.8807 44.8375L33.2395 41.3173C32.7312 40.6484 32.4738 39.8223 32.5123 38.983C32.6164 37.3859 33.9049 35.734 35.8807 35.734C37.8565 35.734 39.145 37.3863 39.2493 38.985C39.2951 39.8216 39.0388 40.6468 38.527 41.3102V41.3101ZM30.6836 47.9297L30.6802 41.773L31.8653 41.7906C31.9414 41.9139 32.0229 42.035 32.1095 42.1539L35.3182 46.4312C35.3837 46.5185 35.4686 46.5894 35.5663 46.6382C35.6639 46.687 35.7716 46.7125 35.8807 46.7125C35.9899 46.7125 36.0975 46.687 36.1952 46.6382C36.2928 46.5894 36.3777 46.5185 36.4432 46.4312L39.6514 42.1552C39.7431 42.0333 39.8288 41.9083 39.9084 41.7802L55.2366 41.7541L57.1683 47.9297H30.6836Z" fill="black"/>
</svg>
