<svg id="Capa_1" enable-background="new 0 0 512 512" height="512" viewBox="0 0 512 512" width="512" xmlns="http://www.w3.org/2000/svg"><g><path d="m328.143 408.822h-280.562c-17.965 0-32.581-14.615-32.581-32.58v-224.452c0-17.965 14.616-32.58 32.581-32.58 4.142 0 7.5-3.358 7.5-7.5 0-4.143-3.358-7.5-7.5-7.5-26.236 0-47.581 21.344-47.581 47.58v224.452c0 26.236 21.345 47.58 47.581 47.58h280.562c4.142 0 7.5-3.357 7.5-7.5 0-4.141-3.358-7.5-7.5-7.5z"/><path d="m464.419 104.21h-248.501c-4.142 0-7.5 3.357-7.5 7.5 0 4.142 3.358 7.5 7.5 7.5h248.501c17.965 0 32.581 14.615 32.581 32.58v224.452c0 17.965-14.616 32.58-32.581 32.58h-8.016c-4.142 0-7.5 3.358-7.5 7.5 0 4.143 3.358 7.5 7.5 7.5h8.016c26.236 0 47.581-21.344 47.581-47.58v-224.452c0-26.236-21.345-47.58-47.581-47.58z"/><path d="m79.645 119.21c22.385 0 40.597 18.211 40.597 40.597 0 4.142 3.358 7.5 7.5 7.5s7.5-3.358 7.5-7.5c0-22.385 18.212-40.597 40.597-40.597 4.142 0 7.5-3.358 7.5-7.5 0-4.143-3.358-7.5-7.5-7.5-22.385 0-40.597-18.212-40.597-40.597 0-4.142-3.358-7.5-7.5-7.5s-7.5 3.358-7.5 7.5c0 22.385-18.211 40.597-40.597 40.597-4.142 0-7.5 3.357-7.5 7.5 0 4.142 3.358 7.5 7.5 7.5zm48.097-27.732c4.869 8.372 11.86 15.363 20.232 20.232-8.372 4.868-15.363 11.86-20.232 20.231-4.869-8.371-11.86-15.363-20.231-20.231 8.37-4.869 15.362-11.86 20.231-20.232z"/><path d="m424.339 408.822c-13.545 0-24.564-11.02-24.564-24.564 0-4.142-3.358-7.5-7.5-7.5s-7.5 3.358-7.5 7.5c0 13.545-11.02 24.564-24.565 24.564-4.142 0-7.5 3.358-7.5 7.5 0 4.143 3.358 7.5 7.5 7.5 13.545 0 24.565 11.02 24.565 24.565 0 4.142 3.358 7.5 7.5 7.5s7.5-3.358 7.5-7.5c0-13.545 11.02-24.565 24.564-24.565 4.142 0 7.5-3.357 7.5-7.5 0-4.141-3.358-7.5-7.5-7.5zm-32.065 16.411c-2.478-3.422-5.489-6.433-8.911-8.911 3.421-2.478 6.433-5.489 8.911-8.91 2.478 3.421 5.489 6.433 8.911 8.91-3.422 2.478-6.433 5.49-8.911 8.911z"/><path d="m113.288 192.387c-4.142 0-7.5 3.358-7.5 7.5v128.15c0 3.653 2.632 6.774 6.232 7.392.521.089 1.275.219 15.187.219 6.752 0 16.607-.031 31.036-.111 4.142-.023 7.481-3.4 7.458-7.542-.023-4.128-3.376-7.458-7.499-7.458-.014 0-.029 0-.043 0-11.373.063-28.027.127-37.37.104v-120.754c-.001-4.142-3.359-7.5-7.501-7.5z"/><path d="m318.177 334.276c1.313.925 2.82 1.37 4.313 1.37 2.357 0 4.677-1.108 6.138-3.181l42.25-59.975 42.188 59.97c1.46 2.076 3.782 3.186 6.141 3.186 1.491 0 2.997-.444 4.309-1.367 3.388-2.383 4.202-7.062 1.819-10.449l-45.28-64.366 38.928-55.258c2.385-3.386 1.574-8.065-1.812-10.451s-8.065-1.574-10.451 1.812l-35.833 50.864-35.779-50.86c-2.384-3.389-7.062-4.202-10.45-1.819s-4.202 7.062-1.819 10.449l38.871 55.256-45.345 64.368c-2.385 3.387-1.574 8.066 1.812 10.451z"/><path d="m211.134 327.704c8.226 5.256 17.535 7.927 27.669 7.941h.084c8.805 0 17.043-1.901 24.487-5.649 18.513-9.324 28.298-23.828 28.298-41.946v-88.163c0-4.142-3.358-7.5-7.5-7.5s-7.5 3.358-7.5 7.5v88.163c0 12.417-6.557 21.756-20.045 28.549-5.333 2.686-11.301 4.047-17.742 4.046-.021 0-.042 0-.063 0-7.233-.01-13.832-1.888-19.613-5.582-11.677-7.46-16.659-15.512-16.659-26.921v-88.255c0-4.142-3.358-7.5-7.5-7.5s-7.5 3.358-7.5 7.5v88.255c.001 16.483 7.715 29.423 23.584 39.562z"/></g></svg>